<svg width="1052" height="486" viewBox="0 0 1052 486" fill="none" xmlns="http://www.w3.org/2000/svg">
<path d="M88.5597 86.4841C101.059 86.4841 102.059 82.5043 104.559 80.5144C129.057 56.1381 175.554 33.7518 206.052 21.8124C236.55 9.87303 267.548 7.38565 323.545 2.90838C379.542 -1.56889 456.037 2.90838 489.035 5.39575C522.033 7.88313 550.531 16.8377 573.53 27.2846C596.528 37.7316 666.024 88.9715 689.022 107.378C712.021 125.785 729.52 126.78 736.019 126.78C742.519 126.78 773.517 129.267 831.514 132.252C889.51 135.237 939.507 150.161 976.005 173.542C1012.15 196.699 1034.08 240.35 1039.35 250.852L1039.5 251.148C1044.5 261.098 1051 280.997 1051 294.926C1051 308.855 1039.5 363.577 1037 371.537C1034.5 379.497 1030.5 387.456 1027.5 388.451C1024.5 389.446 867.011 418.3 855.012 419.792C843.013 421.284 767.518 427.752 750.519 429.741C733.52 431.731 683.523 442.178 675.523 443.671C669.124 444.865 597.861 443.173 563.03 442.178C555.364 442.344 538.932 441.78 534.532 438.198C524.033 422.777 520.533 407.355 520.033 402.38C519.533 397.406 514.533 332.734 494.034 278.012C468.536 220.802 444.538 214.335 440.538 212.843C436.538 211.35 429.538 206.873 409.54 220.802C389.541 234.731 377.042 282.489 376.542 299.901C376.042 317.312 382.041 372.034 383.041 375.517C383.841 378.303 389.041 386.295 391.541 389.943L395.541 404.37H389.541C360.043 395.913 300.246 378.8 297.047 378.004C293.047 377.009 173.054 342.186 168.055 341.191C164.055 340.395 123.391 331.573 103.559 327.262C101.559 320.131 97.459 304.975 97.059 301.393C97.059 299.403 95.0591 260.6 84.0598 209.858C73.0605 159.115 52.5618 154.638 46.0622 154.638C39.5626 154.638 26.0634 160.608 19.5638 186.974C14.3641 208.067 17.3973 236.224 19.5638 247.666C19.7304 248.827 20.1638 254.033 20.5637 265.575C0.564968 240.204 1.56509 208.863 1.06512 199.908C0.565154 190.954 2.56503 142.201 20.5639 113.845C38.5628 85.4891 76.0605 86.4841 88.5597 86.4841Z" stroke="#FF00E5" stroke-width="2"/>
<path d="M560.53 21.8124C535.199 16.506 472.636 6.58969 425.039 9.37555C365.542 12.8579 295.047 17.8326 290.547 19.8225C287.547 21.1492 288.616 22.773 290.547 25.7922C311.546 58.6255 325.545 91.9563 341.544 129.267C342.6 131.731 343.544 133.247 349.543 132.749C355.543 132.252 509.533 117.825 553.531 117.825C577.029 117.825 654.024 113.845 712.521 121.307" stroke="#FF00E5" stroke-width="2"/>
<path d="M259.549 8.87808C264.049 9.87303 275.172 9.4126 289.547 31.7619C305.546 56.6356 334.544 119.317 339.544 133.744C342.044 140.211 344.544 140.709 349.543 140.709C354.543 140.709 458.537 146.678 500.534 164.09C542.531 181.502 592.528 207.868 641.525 248.163C690.522 288.459 696.022 290.946 699.022 292.936C702.021 294.926 705.521 296.418 715.521 296.916C725.52 297.413 827.014 299.403 893.01 291.444C959.006 283.484 983.004 280.499 999.003 271.545C1003.5 269.057 1003 268.062 1001 264.082C999.003 260.103 934.507 193.441 883.51 174.04C832.513 154.638 776.017 142.201 743.519 135.734C720.331 131.12 709.521 123.297 707.021 120.81" stroke="#FF00E5" stroke-width="2"/>
<path d="M554.031 189.461C545.365 191.783 529.433 199.809 535.032 213.34C542.032 230.254 571.53 263.088 594.029 275.027C616.527 286.966 645.525 293.433 669.024 291.941C687.823 290.747 680.69 280.167 674.524 275.027" stroke="#FF00E5" stroke-width="2"/>
<path d="M965.005 166.577C961.839 167.241 954.706 170.259 951.506 177.024C947.506 185.482 949.506 186.974 955.006 193.939C960.505 200.903 1012 249.158 1014.5 251.148C1017 253.138 1026.5 260.103 1034 257.615C1040 255.625 1037 246.339 1035 242.194" stroke="#FF00E5" stroke-width="2"/>
<path d="M94.0591 86.4841C110.058 89.3031 147.756 96.9311 170.554 104.891C193.353 112.85 203.386 115.503 205.552 115.835" stroke="#FF00E5" stroke-width="2"/>
<path d="M268.049 121.805C269.249 122.203 278.215 125.287 282.548 126.78L293.547 108.87C292.047 107.71 285.048 103.588 277.048 99.4184C266.549 93.9462 272.048 89.4689 259.549 85.4891C247.05 81.5093 217.552 94.9412 215.552 95.9361C213.552 96.9311 198.053 103.896 202.553 112.353C207.052 120.81 223.051 121.805 231.051 121.805H257.549C261.549 121.805 266.549 121.307 268.049 121.805Z" stroke="#FF00E5" stroke-width="2"/>
<path d="M160.553 101.408C158.053 102.901 120.558 121.307 115.058 162.598C110.372 197.782 151.554 265.575 156.054 281.494C160.553 297.413 190.052 306.368 201.551 311.343C213.05 316.317 286.546 343.678 293.545 345.668C300.545 347.658 370.041 375.517 373.04 375.517C375.44 375.517 380.707 375.517 383.04 375.517" stroke="#FF00E5" stroke-width="2"/>
<path d="M112.059 217.817C110.487 212.345 118.416 205.878 122.057 214.335C127.057 228.762 139.557 255.526 141.556 259.108C144.056 263.585 147.556 269.223 143.556 270.55C140.556 271.545 135.557 267.067 134.057 263.585C132.943 260.998 115.06 228.264 112.059 217.817Z" stroke="#FF00E5" stroke-width="2"/>
<path d="M141.056 96.4336C141.889 86.6499 146.056 65.1922 156.055 57.6306C168.554 48.1786 196.053 37.2341 198.053 36.7367C200.053 36.2392 241.05 22.3099 259.049 28.2796C284.547 36.7367 318.545 136.232 315.545 136.729C312.546 137.226 281.047 134.242 269.048 131.257C259.449 128.869 238.383 124.292 229.051 122.302" stroke="#FF00E5" stroke-width="2"/>
<path d="M205.053 21.8124L189.053 40.219" stroke="#FF00E5" stroke-width="2"/>
<path d="M161.555 102.403C171.055 81.841 191.353 40.02 196.553 37.2341" stroke="#FF00E5" stroke-width="2"/>
<path d="M166.055 103.398C174.388 84.4942 192.153 45.9897 196.553 43.2038C202.052 39.7215 233.051 28.7771 255.049 34.7468C277.048 40.7164 304.046 113.845 311.546 136.729" stroke="#FF00E5" stroke-width="2"/>
<path d="M292.047 87.479L285.547 103.398" stroke="#FF00E5" stroke-width="2"/>
<path d="M277.048 125.287L274.048 132.749" stroke="#FF00E5" stroke-width="2"/>
<path d="M315.045 136.729C309.879 141.372 300.046 151.653 302.046 155.633C304.546 160.608 309.046 163.095 305.546 173.542C302.046 183.989 300.046 209.858 291.047 216.822C282.048 223.787 288.547 321.292 289.047 328.257C289.547 335.221 289.547 341.191 285.547 350.146C285.547 358.105 291.38 372.2 296.047 377.507" stroke="#FF00E5" stroke-width="2"/>
<path d="M4.06494 163.593C5.89816 166.246 12.0644 172.746 22.0638 177.522" stroke="#FF00E5" stroke-width="2"/>
<path d="M495.534 279.504C517.533 285.142 578.029 297.413 644.025 301.393C685.022 303.865 704.521 301.393 705.521 295.921" stroke="#FF00E5" stroke-width="2"/>
<path d="M1002.5 269.057C1017 271.876 1041 272.042 1044.5 263.088" stroke="#FF00E5" stroke-width="2"/>
<path d="M638.026 371.039C623.527 350.643 630.526 341.688 638.026 336.714C649.525 335.221 675.524 335.221 687.523 336.714C699.522 338.206 706.022 348.653 707.022 350.643C708.022 352.633 713.021 372.532 716.521 388.451C720.021 404.37 714.521 403.375 687.523 404.37C660.525 405.365 652.525 391.436 638.026 371.039Z" stroke="#FF00E5" stroke-width="2"/>
<path d="M1024 336.216C1028 320.297 1037.5 306.368 1041 301.891C1044.5 297.413 1047 299.901 1047.5 301.891C1047.94 303.631 1045.5 311.343 1044.5 315.82C1043.5 320.297 1031.5 351.14 1026 356.613C1020.5 362.085 1019.5 356.196 1019.5 354.623C1019.5 353.13 1021.5 346.166 1024 336.216Z" stroke="#FF00E5" stroke-width="2"/>
<path d="M655.524 82.0068C656.524 80.5144 661.524 73.5498 670.523 77.0321C679.523 80.5144 690.522 86.4841 693.022 94.4437C695.022 100.811 689.522 104.393 686.522 105.388" stroke="#FF00E5" stroke-width="2"/>
<path d="M145.557 125.785C148.557 127.277 152.057 133.247 150.557 136.232C145.39 137.558 135.057 139.415 135.057 136.232C135.057 132.252 142.557 124.292 145.557 125.785Z" stroke="#FF00E5" stroke-width="2"/>
<path d="M59.0614 159.613C50.8952 159.779 32.963 167.075 26.5634 194.934C18.5639 229.757 17.0639 263.585 26.5634 302.885C36.0628 342.186 53.5619 355.12 67.0611 359.1C82.5601 360.095 118.058 356.613 121.558 356.115C128.057 355.191 143.056 345.668 147.556 336.714" stroke="#FF00E5" stroke-width="2"/>
<path d="M79 191.5L76.5 193.5" stroke="#FF00E5" stroke-width="2"/>
<path d="M76.5 184.5L73.5 187.5" stroke="#FF00E5" stroke-width="2"/>
<path d="M73.5 178L70.5 181.5" stroke="#FF00E5" stroke-width="2"/>
<path d="M70.5 172.5L67 177" stroke="#FF00E5" stroke-width="2"/>
<path d="M68 169L65.5 170.5L63.5 173.5" stroke="#FF00E5" stroke-width="2"/>
<path d="M65.5 165.5L62.5 167L60 170.5" stroke="#FF00E5" stroke-width="2"/>
<path d="M62.5 162.5L58 165L56.5 168.5" stroke="#FF00E5" stroke-width="2"/>
<path d="M60.5 160.5L57 162.5L54 165L52.5 168" stroke="#FF00E5" stroke-width="2"/>
<path d="M56 160L51 164L49 167" stroke="#FF00E5" stroke-width="2"/>
<path d="M48.5 162.5L47 165.5L46 168" stroke="#FF00E5" stroke-width="2"/>
<path d="M44.5 165L42.5 169.5" stroke="#FF00E5" stroke-width="2"/>
<path d="M40.5 168.5L39.5 172" stroke="#FF00E5" stroke-width="2"/>
<path d="M51.0619 182.994C79.0601 182.497 84.0598 250.651 85.0598 260.6C86.5596 293.931 81.0601 334.724 59.5614 336.714C38.0627 338.704 27.0634 276.519 26.5634 270.55C26.0634 264.58 23.0636 183.492 51.0619 182.994Z" stroke="#FF00E5" stroke-width="2"/>
<path d="M38.5627 233.737C38.1627 234.93 30.3965 243.52 26.5634 247.666L26.0635 255.128C30.2299 262.424 38.7627 277.514 39.5626 279.504C40.3626 281.494 44.229 313.167 46.0622 328.754L49.0621 332.236C50.562 324.609 53.8618 308.358 55.0617 304.378C56.5616 299.403 59.0614 300.896 60.0614 301.393C60.8613 301.791 73.7272 310.182 80.0601 314.327C80.3934 312.503 81.1601 308.358 81.56 306.368C79.5602 303.383 67.0609 274.529 67.5609 262.093C67.9609 252.143 76.0604 234.4 80.0601 226.772L77.5603 217.32C73.3939 218.481 64.0611 221.001 60.0614 221.797C55.0617 222.792 54.5617 218.812 54.0617 217.817C53.6618 217.021 48.5621 194.934 46.0622 183.989L42.5625 185.979C41.3959 201.401 38.9627 232.543 38.5627 233.737Z" stroke="#FF00E5" stroke-width="2"/>
<path d="M83.0601 243.686C81.3934 248.992 78.0601 260.202 78.0601 262.59C78.0601 265.575 82.5601 282.987 84.5601 288.459" stroke="#FF00E5" stroke-width="2"/>
<path d="M65.0618 305.373C62.7284 313.498 58.1618 331.142 58.5618 336.714" stroke="#FF00E5" stroke-width="2"/>
<path d="M60.5615 185.482C60.0615 189.793 59.3615 199.51 60.5615 203.888C61.7615 208.266 64.3949 216.988 65.5615 220.802" stroke="#FF00E5" stroke-width="2"/>
<path d="M35.063 271.047C35.063 275.524 36.163 287.961 42.563 301.891" stroke="#FF00E5" stroke-width="2"/>
<path d="M35.563 237.219C35.8963 232.742 37.363 221.598 40.563 212.843" stroke="#FF00E5" stroke-width="2"/>
<path d="M75.061 223.787C74.261 222.593 66.061 228.762 60.5609 232.244C59.1646 233.239 63.1841 241.382 64.0611 242.691C65.061 244.183 66.561 244.681 67.061 243.686C67.561 242.691 76.061 225.279 75.061 223.787Z" stroke="#FF00E5" stroke-width="2"/>
<path d="M75.0615 302.388C75.0615 301.592 68.7282 285.142 65.5615 277.017C65.2516 276.221 59.0615 290.946 59.0615 292.936C59.5615 294.926 68.6615 302.288 71.0615 303.88C74.0615 305.87 75.5615 303.88 75.0615 302.388Z" stroke="#FF00E5" stroke-width="2"/>
<path d="M45.562 202.893C45.5619 204.883 44.562 223.787 44.562 224.782C45.7619 225.18 50.0621 224.782 51.0621 224.782C50.5621 221.797 46.362 202.893 45.562 202.893Z" stroke="#FF00E5" stroke-width="2"/>
<path d="M40.063 260.6C40.3256 261.253 30.063 254.63 30.063 252.143C30.063 250.651 39.7701 246.259 39.063 247.666C38.063 249.656 39.063 258.113 40.063 260.6Z" stroke="#FF00E5" stroke-width="2"/>
<path d="M47.5622 316.815C47.5622 316.815 45.0622 289.951 45.5622 289.454C46.0622 288.956 52.0624 295.921 52.5622 296.418C53.062 296.916 47.5622 316.815 47.5622 316.815Z" stroke="#FF00E5" stroke-width="2"/>
<path d="M63.5605 353.13L67.0605 357.11L72.0605 359.1" stroke="#FF00E5" stroke-width="2"/>
<path d="M59.561 353.13L64.061 358.105" stroke="#FF00E5" stroke-width="2"/>
<path d="M67.0605 352.135L71.5605 356.115L80.5605 359.1" stroke="#FF00E5" stroke-width="2"/>
<path d="M70.5605 350.146L75.0603 354.623L86.5596 356.613H89.5594" stroke="#FF00E5" stroke-width="2"/>
<path d="M82.0596 355.618L84.0596 359.1" stroke="#FF00E5" stroke-width="2"/>
<path d="M74.0601 347.658L77.0599 351.141L87.0593 353.628L91.559 358.603" stroke="#FF00E5" stroke-width="2"/>
<path d="M76.5601 344.176L81.0598 347.161L89.5593 349.648L93.559 358.603" stroke="#FF00E5" stroke-width="2"/>
<path d="M79.5596 339.201L83.5593 342.186L94.0587 345.668L99.0584 348.653L99.5583 358.105" stroke="#FF00E5" stroke-width="2"/>
<path d="M82.0596 334.226L87.0593 337.211L95.0588 339.201L99.0585 348.653" stroke="#FF00E5" stroke-width="2"/>
<path d="M84.5596 328.257L88.0594 329.749L99.5586 333.231L104.558 338.704L106.558 344.176V354.623L122.557 345.668L134.556 334.226" stroke="#FF00E5" stroke-width="2"/>
<path d="M86.5596 321.292L89.5594 323.282L100.059 325.769L104.558 338.704" stroke="#FF00E5" stroke-width="2"/>
<path d="M89.5591 349.648L95.0591 351.141L99.0591 348.653" stroke="#FF00E5" stroke-width="2"/>
<path d="M88.5591 313.332L92.0591 315.322L100.559 317.312" stroke="#FF00E5" stroke-width="2"/>
<path d="M90.0591 305.373L98.5591 307.86" stroke="#FF00E5" stroke-width="2"/>
<path d="M90.5591 296.916L97.0591 298.408" stroke="#FF00E5" stroke-width="2"/>
<path d="M91.5591 287.961L96.0591 288.956" stroke="#FF00E5" stroke-width="2"/>
<path d="M92.0591 279.007H95.0591" stroke="#FF00E5" stroke-width="2"/>
<path d="M92.0591 270.052H93.559M110.558 328.754L113.058 338.206V347.161L122.557 339.699L129.057 332.734" stroke="#FF00E5" stroke-width="2"/>
<path d="M118.558 330.744V337.709L124.558 331.739" stroke="#FF00E5" stroke-width="2"/>
<path d="M147.556 336.714L134.557 342.186L127.057 347.161L110.058 357.11" stroke="#FF00E5" stroke-width="2"/>
<path d="M141.556 344.176L131.057 348.156L118.058 356.613" stroke="#FF00E5" stroke-width="2"/>
<path d="M140.556 335.221L134.556 342.186" stroke="#FF00E5" stroke-width="2"/>
<path d="M95.0591 339.201L101.059 340.694L105.059 339.201" stroke="#FF00E5" stroke-width="2"/>
<path d="M852.013 420.289C856.679 424.435 874.411 431.134 908.009 424.767C950.007 416.807 951.007 415.315 956.506 411.335C960.906 408.151 968.006 402.049 971.005 399.396" stroke="#FF00E5" stroke-width="2"/>
<path d="M857.512 419.294L861.512 424.767" stroke="#FF00E5" stroke-width="2"/>
<path d="M863.512 418.3L865.512 422.279L871.012 426.259" stroke="#FF00E5" stroke-width="2"/>
<path d="M870.512 417.305L875.512 424.269L882.512 427.752" stroke="#FF00E5" stroke-width="2"/>
<path d="M877.511 415.812L881.511 421.782L887.011 425.264L892.511 427.254" stroke="#FF00E5" stroke-width="2"/>
<path d="M884.511 414.32L890.51 421.284L897.51 423.772L905.509 425.264" stroke="#FF00E5" stroke-width="2"/>
<path d="M894.01 412.827L895.51 416.31L903.51 420.289L909.01 421.782" stroke="#FF00E5" stroke-width="2"/>
<path d="M934.008 405.863L932.008 412.827L927.508 418.797L921.508 422.279" stroke="#FF00E5" stroke-width="2"/>
<path d="M942.008 404.37L939.008 410.837L927.508 418.797" stroke="#FF00E5" stroke-width="2"/>
<path d="M950.508 402.878L944.508 409.345L934.508 413.822" stroke="#FF00E5" stroke-width="2"/>
<path d="M958.006 401.385L951.007 408.847L930.508 420.289" stroke="#FF00E5" stroke-width="2"/>
<path d="M962.506 400.888L955.506 409.345L937.007 418.797" stroke="#FF00E5" stroke-width="2"/>
<path d="M904.01 424.767L908.51 421.782L912.01 416.31" stroke="#FF00E5" stroke-width="2"/>
<path d="M904.01 411.335L906.51 414.32L916.009 417.802L921.509 416.31" stroke="#FF00E5" stroke-width="2"/>
<path d="M924.509 407.853L921.509 416.807L913.009 423.772" stroke="#FF00E5" stroke-width="2"/>
<path d="M446.038 214.833C429.205 219.144 394.041 241.796 388.041 297.911C380.542 368.055 395.541 417.802 418.539 452.625C441.538 487.448 473.536 484.961 477.536 484.961C481.536 484.961 536.532 479.986 555.031 471.032C569.83 463.868 581.529 448.977 584.529 442.676" stroke="#FF00E5" stroke-width="2"/>
<path d="M457 223L455.5 226" stroke="#FF00E5" stroke-width="2"/>
<path d="M451.5 218.5L450 220.5L448.5 224.5" stroke="#FF00E5" stroke-width="2"/>
<path d="M447.5 216L443.5 220L442 224" stroke="#FF00E5" stroke-width="2"/>
<path d="M442 216L437 220.5L435.5 224.5" stroke="#FF00E5" stroke-width="2"/>
<path d="M432 221L430.5 223.5L429.5 226.5" stroke="#FF00E5" stroke-width="2"/>
<path d="M424 226.5L423 230" stroke="#FF00E5" stroke-width="2"/>
<path d="M418 232L417.5 234" stroke="#FF00E5" stroke-width="2"/>
<path d="M396.041 339.201C395.541 273.037 422.04 252.641 432.039 247.168C484.036 229.259 519.533 334.724 504.034 398.401C488.535 462.077 457.537 457.6 443.038 450.635C428.539 443.671 396.541 405.365 396.041 339.201Z" stroke="#FF00E5" stroke-width="2"/>
<path d="M422.539 307.363C423.039 303.383 428.039 261.098 428.539 258.61C428.539 257.449 428.139 255.227 426.539 255.625C405.54 271.545 399.54 316.317 399.041 319.8C398.541 323.282 399.54 326.764 402.04 325.769C404.54 324.774 411.04 319.8 415.04 317.312C419.039 314.825 422.039 311.343 422.539 307.363Z" stroke="#FF00E5" stroke-width="2"/>
<path d="M438.538 256.123C437.038 250.899 441.538 250.153 443.538 250.153C469.037 248.661 486.035 283.981 488.535 287.961C491.035 291.941 491.036 294.428 489.035 294.926C487.035 295.423 472.536 297.911 463.537 299.403C454.537 300.896 453.038 296.916 452.038 295.921C451.038 294.926 440.539 263.087 438.538 256.123Z" stroke="#FF00E5" stroke-width="2"/>
<path d="M418.039 369.547C416.039 367.557 403.54 351.14 402.54 349.648C401.454 348.156 399.54 346.166 399.041 349.648C406.04 406.858 423.039 424.269 425.539 428.747C428.039 433.224 428.539 428.747 428.039 426.757C427.539 424.767 423.039 388.949 423.039 382.979C423.039 377.009 420.039 371.537 418.039 369.547Z" stroke="#FF00E5" stroke-width="2"/>
<path d="M440.038 441.183C437.038 438.945 438.002 436.209 439.038 433.721C441.871 426.922 448.137 413.225 450.537 408.848C453.537 403.375 457.537 405.365 459.037 406.36C460.536 407.355 488.535 422.777 490.535 425.264C471.536 457.103 444.037 444.168 440.038 441.183Z" stroke="#FF00E5" stroke-width="2"/>
<path d="M498.535 305.87C496.035 307.363 486.535 321.292 478.536 343.181C473.082 358.105 478.536 374.024 482.536 384.471C484.565 389.772 491.535 405.365 498.535 416.31" stroke="#FF00E5" stroke-width="2"/>
<path d="M466.537 315.322C464.537 309.85 468.537 309.85 470.537 308.855C474.536 306.865 483.636 302.587 488.035 301.393C493.535 299.901 491.535 302.885 490.535 304.378C489.535 305.87 479.536 321.789 476.536 327.759C474.136 332.535 471.536 329.749 470.537 327.759C469.87 325.438 468.137 319.7 466.537 315.322Z" stroke="#FF00E5" stroke-width="2"/>
<path d="M428.039 298.906C428.039 296.916 431.039 263.088 431.539 260.103C432.386 252.143 434.039 258.113 434.539 260.103C435.039 262.093 440.539 288.459 442.039 292.439C443.539 296.418 443.539 297.413 442.039 298.906C440.539 300.398 433.539 303.88 430.039 305.373C426.539 306.865 428.039 300.896 428.039 298.906Z" stroke="#FF00E5" stroke-width="2"/>
<path d="M417.539 323.779C416.039 324.774 403.54 333.231 401.54 334.226C399.54 335.418 400.04 336.714 401.54 338.206C403.04 339.699 416.039 351.638 420.039 353.628C424.039 355.618 426.539 353.13 425.039 348.156C423.539 343.181 425.039 332.236 425.039 325.769C425.039 319.302 419.039 322.784 417.539 323.779Z" stroke="#FF00E5" stroke-width="2"/>
<path d="M443.538 401.385C444.538 397.406 442.538 394.918 440.538 393.426C437.538 391.436 431.039 386.66 429.039 383.476C426.539 379.497 427.039 384.969 427.039 389.944C427.039 394.918 431.039 423.772 431.539 430.239C432.039 436.706 433.538 435.214 435.038 431.731C435.538 427.254 442.538 405.365 443.538 401.385Z" stroke="#FF00E5" stroke-width="2"/>
<path d="M487.035 409.842C486.035 407.355 472.536 378.004 470.536 374.522C468.536 370.554 466.536 371.537 465.037 374.522C463.537 377.507 460.037 385.964 458.037 389.943C456.037 393.923 456.037 393.923 458.037 396.411C460.037 398.898 478.036 411.335 484.535 415.315C491.035 419.294 488.035 412.33 487.035 409.842Z" stroke="#FF00E5" stroke-width="2"/>
<path d="M502.035 320.297C499.535 323.779 486.535 348.156 488.035 357.608C489.535 367.06 499.535 395.416 502.035 403.873" stroke="#FF00E5" stroke-width="2"/>
<path d="M462.538 408.848C457.871 417.47 448.238 436.706 447.038 444.666" stroke="#FF00E5" stroke-width="2"/>
<path d="M453.537 251.148C453.037 259.771 455.237 281.295 468.037 298.408" stroke="#FF00E5" stroke-width="2"/>
<path d="M411.04 362.582C412.873 373.029 418.24 396.411 425.04 406.36" stroke="#FF00E5" stroke-width="2"/>
<path d="M426.539 272.042C421.206 279.67 410.44 300.199 410.04 321.292" stroke="#FF00E5" stroke-width="2"/>
<path d="M515.534 404.37L520.034 405.863" stroke="#FF00E5" stroke-width="2"/>
<path d="M513.534 416.31L524.034 418.797" stroke="#FF00E5" stroke-width="2"/>
<path d="M510.534 426.757L531.532 433.224" stroke="#FF00E5" stroke-width="2"/>
<path d="M507.034 437.204L530.533 445.661L537.532 443.173" stroke="#FF00E5" stroke-width="2"/>
<path d="M502.534 445.661L510.034 449.64L522.533 453.62L527.033 457.6" stroke="#FF00E5" stroke-width="2"/>
<path d="M498.035 453.62L504.534 458.098L519.533 462.575H527.533" stroke="#FF00E5" stroke-width="2"/>
<path d="M493.035 460.585L497.534 464.067L511.034 468.047L515.533 471.529" stroke="#FF00E5" stroke-width="2"/>
<path d="M487.535 466.555L493.035 471.032L507.034 474.514H512.534" stroke="#FF00E5" stroke-width="2"/>
<path d="M480.536 470.534L485.535 475.509L498.535 478.991L501.534 480.484" stroke="#FF00E5" stroke-width="2"/>
<path d="M475.536 474.514L479.536 478.991L489.535 481.479L496.535 483.469" stroke="#FF00E5" stroke-width="2"/>
<path d="M469.037 476.504L473.037 481.479L483.537 484.464" stroke="#FF00E5" stroke-width="2"/>
<path d="M462.037 476.504L466.037 481.479L473.537 484.961" stroke="#FF00E5" stroke-width="2"/>
<path d="M455.537 476.504L459.037 480.981L464.537 484.464" stroke="#FF00E5" stroke-width="2"/>
<path d="M449.038 474.514L453.038 480.981" stroke="#FF00E5" stroke-width="2"/>
<path d="M442.038 471.032L445.538 477.499" stroke="#FF00E5" stroke-width="2"/>
<path d="M436.039 468.047L438.539 473.022" stroke="#FF00E5" stroke-width="2"/>
<path d="M536.032 439.193L538.532 446.656V459.59L533.532 471.032L556.031 454.118L567.03 442.676" stroke="#FF00E5" stroke-width="2"/>
<path d="M547.032 441.681V450.635L544.032 459.092L553.532 450.635L559.032 441.681" stroke="#FF00E5" stroke-width="2"/>
<path d="M525.033 443.671L527.033 457.6L528.033 464.565L523.033 476.007L518.033 479.986L538.032 471.529L560.531 456.108L574.53 442.676" stroke="#FF00E5" stroke-width="2"/>
<path d="M514.534 461.58L515.534 472.027L514.534 477.002L510.534 481.479" stroke="#FF00E5" stroke-width="2"/>
<path d="M502.534 474.514L501.034 482.474" stroke="#FF00E5" stroke-width="2"/>
<path d="M510.034 467.549L512.534 474.017L510.034 481.479" stroke="#FF00E5" stroke-width="2"/>
<path d="M580.53 449.143L565.031 457.103L562.031 455.113" stroke="#FF00E5" stroke-width="2"/>
<path d="M580.53 442.676L573.53 446.656L561.531 455.113" stroke="#FF00E5" stroke-width="2"/>
<path d="M572.53 458.595L552.031 467.052L533.032 477.499" stroke="#FF00E5" stroke-width="2"/>
<path d="M565.031 457.103L551.531 467.052" stroke="#FF00E5" stroke-width="2"/>
<path d="M564.03 465.56L542.032 473.022" stroke="#FF00E5" stroke-width="2"/>
<path d="M739.02 352.135C809.682 350.643 962.106 342.683 1006.5 322.784" stroke="#FF00E5" stroke-width="2"/>
<path d="M739.02 355.618C806.349 354.954 954.006 348.156 1006 326.267" stroke="#FF00E5" stroke-width="2"/>
<path d="M741.02 367.557C809.349 365.733 957.306 357.409 1002.5 338.704" stroke="#FF00E5" stroke-width="2"/>
<path d="M741.519 371.039C807.348 370.045 951.506 362.881 1001.5 342.186" stroke="#FF00E5" stroke-width="2"/>
<path d="M749.019 382.979C817.515 379.994 962.406 370.542 996.004 354.623" stroke="#FF00E5" stroke-width="2"/>
<path d="M751.019 386.461C811.015 385.135 943.607 377.706 994.004 358.603" stroke="#FF00E5" stroke-width="2"/>
<path d="M793.016 331.242L792.016 350.643" stroke="#FF00E5" stroke-width="2"/>
<path d="M796.516 331.242L795.516 350.643" stroke="#FF00E5" stroke-width="2"/>
<path d="M792.016 354.125L791.016 366.065" stroke="#FF00E5" stroke-width="2"/>
<path d="M795.016 354.125L794.016 365.567" stroke="#FF00E5" stroke-width="2"/>
<path d="M790.517 370.045L789.517 380.989" stroke="#FF00E5" stroke-width="2"/>
<path d="M793.516 370.045L792.516 380.491" stroke="#FF00E5" stroke-width="2"/>
<path d="M789.017 384.969L787.017 402.878" stroke="#FF00E5" stroke-width="2"/>
<path d="M792.017 384.969L790.017 402.878" stroke="#FF00E5" stroke-width="2"/>
<path d="M849.013 328.257L848.013 347.161" stroke="#FF00E5" stroke-width="2"/>
<path d="M847.513 351.141L847.013 362.085" stroke="#FF00E5" stroke-width="2"/>
<path d="M846.513 366.562L845.513 377.507" stroke="#FF00E5" stroke-width="2"/>
<path d="M845.013 381.486L843.013 399.893" stroke="#FF00E5" stroke-width="2"/>
<path d="M852.013 328.257L851.013 346.663" stroke="#FF00E5" stroke-width="2"/>
<path d="M850.513 351.141L850.013 362.085" stroke="#FF00E5" stroke-width="2"/>
<path d="M850.013 366.065L849.013 376.512" stroke="#FF00E5" stroke-width="2"/>
<path d="M848.513 381.486L846.513 399.893" stroke="#FF00E5" stroke-width="2"/>
<path d="M899.51 323.779L898.51 342.683" stroke="#FF00E5" stroke-width="2"/>
<path d="M902.009 322.784L901.009 342.186" stroke="#FF00E5" stroke-width="2"/>
<path d="M898.51 346.663L897.51 358.105" stroke="#FF00E5" stroke-width="2"/>
<path d="M901.01 346.166L900.01 357.608" stroke="#FF00E5" stroke-width="2"/>
<path d="M897.01 361.587L896.01 373.029" stroke="#FF00E5" stroke-width="2"/>
<path d="M899.51 361.587L898.51 372.532" stroke="#FF00E5" stroke-width="2"/>
<path d="M895.51 377.009L893.51 393.923" stroke="#FF00E5" stroke-width="2"/>
<path d="M898.01 377.009L896.01 393.426" stroke="#FF00E5" stroke-width="2"/>
<path d="M943.507 318.805L942.007 337.709" stroke="#FF00E5" stroke-width="2"/>
<path d="M946.507 318.307L945.007 336.714" stroke="#FF00E5" stroke-width="2"/>
<path d="M942.007 340.694L941.007 352.633" stroke="#FF00E5" stroke-width="2"/>
<path d="M944.507 341.191L943.507 352.135" stroke="#FF00E5" stroke-width="2"/>
<path d="M940.507 356.115L939.507 368.055" stroke="#FF00E5" stroke-width="2"/>
<path d="M943.007 356.115L942.007 367.06" stroke="#FF00E5" stroke-width="2"/>
<path d="M939.007 371.039L937.007 386.959" stroke="#FF00E5" stroke-width="2"/>
<path d="M942.007 370.542L940.007 386.461" stroke="#FF00E5" stroke-width="2"/>
<path d="M980.005 312.337L978.505 330.744" stroke="#FF00E5" stroke-width="2"/>
<path d="M983.004 311.84L981.004 330.744" stroke="#FF00E5" stroke-width="2"/>
<path d="M978.505 334.226L977.505 346.166" stroke="#FF00E5" stroke-width="2"/>
<path d="M981.004 333.729L980.004 345.668" stroke="#FF00E5" stroke-width="2"/>
<path d="M977.505 349.151L976.005 361.09" stroke="#FF00E5" stroke-width="2"/>
<path d="M980.005 348.653L978.505 360.593" stroke="#FF00E5" stroke-width="2"/>
<path d="M976.005 364.075L974.005 378.004" stroke="#FF00E5" stroke-width="2"/>
<path d="M978.505 363.577L976.505 376.512" stroke="#FF00E5" stroke-width="2"/>
<path d="M740.019 347.161C744.519 328.754 792.016 331.242 809.015 331.242C827.014 331.337 953.506 318.805 969.005 315.322C984.504 311.84 1008.5 302.885 1007 318.805C1003 360.095 975.505 378.999 969.005 380.989C962.506 382.979 828.514 406.36 787.517 402.878C746.519 399.396 735.52 365.567 740.019 347.161Z" stroke="#FF00E5" stroke-width="2"/>
</svg>
